<svg width="18" height="18" viewBox="0 0 18 18" fill="none" xmlns="http://www.w3.org/2000/svg">
    <g clip-path="url(#clip0_444_4319)">
        <path fill-rule="evenodd" clip-rule="evenodd"
              d="M11.4996 2.33329C9.19842 2.33329 7.33294 4.19876 7.33294 6.49994C7.33294 8.80112 9.19842 10.6666 11.4996 10.6666C13.8008 10.6666 15.6663 8.80114 15.6663 6.49996C15.6663 4.19877 13.8008 2.33329 11.4996 2.33329ZM5.672 6.23903C5.80848 3.13844 8.36538 0.666626 11.4996 0.666626C14.7213 0.666626 17.3329 3.2783 17.3329 6.49996C17.3329 9.63419 14.8611 12.1911 11.7605 12.3275L4.46186 17.1933C4.13134 17.4137 3.69124 17.3701 3.41035 17.0892L0.910352 14.5892C0.629464 14.3083 0.585886 13.8682 0.806232 13.5377L5.672 6.23903ZM6.07249 8.64292L4.23859 11.3938L6.60578 13.7609L9.35662 11.9271C7.85868 11.3351 6.66447 10.1409 6.07249 8.64292ZM5.19156 14.7038L3.29579 12.808L2.57194 13.8938L4.10579 15.4276L5.19156 14.7038Z"
              fill="#757575"/>
    </g>
    <defs>
        <clipPath id="clip0_444_4319">
            <rect width="16.6667" height="16.6667" fill="white" transform="translate(0.666626 0.666626)"/>
        </clipPath>
    </defs>
</svg>
