<svg width="16" height="16" viewBox="0 0 16 16" fill="none" xmlns="http://www.w3.org/2000/svg">
    <path d="M9.27951 1.04126L9.27311 4.12153L9.26672 7.2018L8.97269 6.48673V6.4849L8.59131 13.3422C8.9663 14.2516 9.16658 14.7375 9.16871 14.7393C9.17084 14.7411 9.38391 14.7521 9.64172 14.7631C10.4215 14.7961 11.3888 14.8676 12.1239 14.9465C12.2944 14.9648 12.4392 14.974 12.4499 14.9666C12.4606 14.9593 12.4627 11.824 12.4606 7.99753L12.4542 1.04126H9.27951Z"
          fill="url(#paint0_linear_444_4307)"/>
    <path d="M3.53711 1.03211V7.99573C3.53711 11.8259 3.54137 14.963 3.54776 14.9685C3.55415 14.974 3.82901 14.9502 4.16139 14.919C4.49377 14.8878 4.95186 14.8475 5.17984 14.831C5.52926 14.8053 6.57754 14.7485 6.69686 14.7467C6.73308 14.7467 6.73521 14.5908 6.73947 11.7966L6.74586 8.84647L6.99941 9.46253C7.03776 9.55787 7.05055 9.58721 7.0889 9.68072L7.47028 2.82527C7.38932 2.62908 7.43193 2.73176 7.34031 2.50807C7.02924 1.75084 6.76504 1.11095 6.75439 1.08161L6.73308 1.03027H3.53711V1.03211Z"
          fill="url(#paint1_linear_444_4307)"/>
    <path d="M3.53711 1.03211L6.74375 8.85193V8.84826L6.9973 9.46431C8.40566 12.8948 9.16205 14.7356 9.16631 14.7393C9.16844 14.7411 9.38151 14.7521 9.63931 14.7631C10.4191 14.7961 11.3865 14.8676 12.1215 14.9464C12.2899 14.9648 12.4369 14.9739 12.4454 14.9666L9.26645 7.19996V7.20179L8.97242 6.48673C8.68478 5.78817 8.49302 5.32063 7.33607 2.50806C7.025 1.75083 6.7608 1.11095 6.75014 1.08161L6.72884 1.03027H5.13297L3.53711 1.03211Z"
          fill="#E30A17"/>
    <defs>
        <linearGradient id="paint0_linear_444_4307" x1="13.8924" y1="11.4551" x2="8.81126" y2="13.6866" gradientUnits="userSpaceOnUse">
            <stop stop-color="#B20610"/>
            <stop offset="0.255959" stop-color="#B20610"/>
            <stop offset="1" stop-color="#590004"/>
        </linearGradient>
        <linearGradient id="paint1_linear_444_4307" x1="1.99627" y1="4.08558" x2="7.49139" y2="1.70019" gradientUnits="userSpaceOnUse">
            <stop stop-color="#B20610"/>
            <stop offset="0.255959" stop-color="#B20610"/>
            <stop offset="1" stop-color="#590004"/>
        </linearGradient>
    </defs>
</svg>