<svg width="16" height="16" viewBox="0 0 16 16" fill="none" xmlns="http://www.w3.org/2000/svg">
    <g clip-path="url(#clip0_444_4328)">
        <path d="M7.33333 1.66667V1C7.33333 0.448 6.88533 0 6.33333 0C5.78133 0 5.33333 0.448 5.33333 1V1.66667C5.33333 2.21867 5.78133 2.66667 6.33333 2.66667C6.88533 2.66667 7.33333 2.21867 7.33333 1.66667ZM10.1653 2.888C9.97267 3.17733 9.65533 3.33333 9.332 3.33333C9.14133 3.33333 8.94867 3.27933 8.778 3.16533C8.31867 2.85933 8.19467 2.238 8.50067 1.77867L8.94533 1.112C9.252 0.652667 9.872 0.527333 10.332 0.834667C10.7913 1.14067 10.9153 1.762 10.6093 2.22133L10.1647 2.888H10.1653ZM3.888 3.16533C3.71733 3.27933 3.52467 3.33333 3.334 3.33333C3.01133 3.33333 2.694 3.17733 2.50133 2.888L2.05667 2.22133C1.75 1.76267 1.87467 1.14133 2.334 0.834667C2.79333 0.528 3.41467 0.652667 3.72067 1.112L4.16533 1.77867C4.472 2.23733 4.34733 2.85867 3.888 3.16533ZM0 10.3333V11C0 12.422 0.813999 13.6573 2 14.2653V15C2 15.552 2.448 16 3 16C3.552 16 4 15.552 4 15V14.6667H12V15C12 15.552 12.4473 16 13 16C13.5527 16 14 15.552 14 15V14.2653C15.186 13.6573 16 12.422 16 11V10.3333C16 8.312 14.3553 6.66667 12.3333 6.66667H9.86133C9.42533 5.12933 8.00867 4 6.33333 4C4.61867 4 3.17533 5.18333 2.776 6.776C1.18333 7.17533 0 8.61867 0 10.3333ZM8 7.66667C8 8.586 7.25267 9.33333 6.33333 9.33333C5.414 9.33333 4.66667 8.586 4.66667 7.66667C4.66667 6.74733 5.414 6 6.33333 6C7.25267 6 8 6.74733 8 7.66667ZM2 10.3333C2 9.70267 2.352 9.15267 2.87 8.87C3.36933 10.3027 4.73333 11.3333 6.33333 11.3333C8.00867 11.3333 9.42467 10.204 9.86133 8.66667H12.3333C13.252 8.66667 14 9.414 14 10.3333V11C14 11.9193 13.252 12.6667 12.3333 12.6667H3.66667C2.74733 12.6667 2 11.9193 2 11V10.3333ZM12.3333 9.33333C12.8853 9.33333 13.3333 9.78133 13.3333 10.3333C13.3333 10.8853 12.8853 11.3333 12.3333 11.3333C11.7813 11.3333 11.3333 10.8853 11.3333 10.3333C11.3333 9.78133 11.7813 9.33333 12.3333 9.33333Z"
              fill="#757575"/>
    </g>
    <defs>
        <clipPath id="clip0_444_4328">
            <rect width="16" height="16" fill="white" transform="matrix(-1 0 0 1 16 0)"/>
        </clipPath>
    </defs>
</svg>
