<svg width="20" height="20" viewBox="0 0 20 20" fill="none" xmlns="http://www.w3.org/2000/svg">
    <path fill-rule="evenodd" clip-rule="evenodd"
          d="M8.33305 6.66668L5.62472 9.37501C5.85771 9.4652 6.05004 9.57573 6.21392 9.66992L6.26638 9.70001C6.57472 9.89168 6.75805 10 7.22472 10C7.69138 10 7.87472 9.89168 8.18305 9.70001L8.19359 9.69382C8.57586 9.4694 9.0915 9.16668 10.008 9.16668C10.933 9.16668 11.4497 9.47501 11.8247 9.70001L11.8337 9.70536C12.1368 9.88561 12.3292 10 12.783 10C13.2414 10 13.433 9.89168 13.7414 9.70001C13.8414 9.64168 13.958 9.57501 14.083 9.50834L8.73305 4.16668C7.44138 2.87501 6.24971 2.49168 4.16638 2.50001V4.58334C5.68305 4.57501 6.57472 4.90834 7.49971 5.83334L8.33305 6.66668ZM5.40739 13.2113C5.10428 13.031 4.91191 12.9166 4.45805 12.9166C3.99972 12.9166 3.80805 13.025 3.49972 13.2166L3.4753 13.2307C3.08654 13.4542 2.57229 13.75 1.66638 13.75V12.0833C2.13305 12.0833 2.31638 11.975 2.62472 11.7833C2.99972 11.5583 3.51638 11.25 4.44138 11.25C5.36638 11.25 5.88305 11.5583 6.25805 11.7833L6.26705 11.7887C6.57015 11.9689 6.76252 12.0833 7.21638 12.0833C7.68305 12.0833 7.86638 11.975 8.17472 11.7833C8.54972 11.5583 9.06638 11.25 9.99138 11.25C10.9164 11.25 11.433 11.5583 11.808 11.7833L11.817 11.7887C12.1201 11.9689 12.3125 12.0833 12.7664 12.0833C13.2247 12.0833 13.4164 11.975 13.7247 11.7833C14.0997 11.5583 14.6164 11.25 15.5414 11.25C16.4664 11.25 16.983 11.5583 17.358 11.7833L17.367 11.7887C17.6702 11.9689 17.8625 12.0833 18.3164 12.0833V13.75C17.3997 13.7416 16.8914 13.4416 16.5164 13.2166L16.5074 13.2113C16.2043 13.031 16.0119 12.9166 15.558 12.9166C15.0914 12.9166 14.908 13.025 14.5997 13.2166C14.2247 13.4416 13.708 13.75 12.783 13.75C11.858 13.75 11.3414 13.4416 10.9664 13.2166L10.9574 13.2113C10.6543 13.031 10.4619 12.9166 10.008 12.9166C9.54138 12.9166 9.35805 13.025 9.04971 13.2166C8.67471 13.4416 8.15805 13.75 7.23305 13.75C6.30805 13.75 5.79138 13.4416 5.41638 13.2166L5.40739 13.2113ZM15.558 15C14.633 15 14.1164 15.3083 13.7414 15.5333C13.433 15.725 13.2414 15.8333 12.783 15.8333C12.3292 15.8333 12.1368 15.7189 11.8337 15.5387L11.8247 15.5333C11.4497 15.3083 10.933 15 10.008 15C9.0915 15 8.57586 15.3027 8.19359 15.5271L8.18305 15.5333C7.87472 15.725 7.69138 15.8333 7.22472 15.8333C6.75805 15.8333 6.57472 15.725 6.26638 15.5333C5.89138 15.3083 5.37472 15 4.44972 15C3.53317 15 3.01753 15.3027 2.63526 15.5271L2.62472 15.5333C2.31638 15.725 2.13305 15.8333 1.66638 15.8333V17.5C2.58293 17.5 3.09857 17.1973 3.48084 16.9728L3.49138 16.9666C3.79972 16.775 3.99138 16.6666 4.44972 16.6666C4.90805 16.6666 5.09971 16.775 5.40805 16.9666C5.78305 17.1916 6.29972 17.5 7.22472 17.5C8.14126 17.5 8.6569 17.1973 9.03917 16.9728L9.04971 16.9666C9.35805 16.775 9.54138 16.6666 10.008 16.6666C10.4619 16.6666 10.6543 16.781 10.9574 16.9613L10.9664 16.9666C11.3414 17.1916 11.858 17.5 12.783 17.5C13.6918 17.5 14.1984 17.2024 14.5794 16.9786L14.5997 16.9666C14.908 16.775 15.0914 16.6666 15.558 16.6666C16.0119 16.6666 16.2043 16.781 16.5074 16.9613L16.5164 16.9666C16.8914 17.1916 17.408 17.5 18.333 17.5V15.8333C17.8664 15.8333 17.683 15.725 17.3747 15.5333C16.9997 15.3083 16.483 15 15.558 15ZM11.6664 4.58331C11.6664 3.43272 12.5991 2.49998 13.7497 2.49998C14.9003 2.49998 15.833 3.43272 15.833 4.58331C15.833 5.73391 14.9003 6.66665 13.7497 6.66665C12.5991 6.66665 11.6664 5.73391 11.6664 4.58331Z"
          fill="black" fill-opacity="0.54"/>
</svg>
