<svg width="24" height="24" viewBox="0 0 24 24" fill="none" xmlns="http://www.w3.org/2000/svg">
    <path d="M22.5 15C22.5 14.5852 22.1647 14.25 21.75 14.25H19.5V8.25C19.5 4.5285 16.4722 1.5 12.75 1.5H11.25C7.52775 1.5 4.5 4.5285 4.5 8.25V14.25H2.25C1.83525 14.25 1.5 14.5852 1.5 15C1.5 15.4148 1.83525 15.75 2.25 15.75V21C1.83525 21 1.5 21.3353 1.5 21.75C1.5 22.1647 1.83525 22.5 2.25 22.5H21.75C22.1647 22.5 22.5 22.1647 22.5 21.75C22.5 21.3353 22.1647 21 21.75 21V15.75C22.1647 15.75 22.5 15.4148 22.5 15ZM5.25 21H3.75V15.75H5.25V21ZM8.25 21H6.75V15.75H8.25V21ZM11.25 21H9.75V15.75H11.25V21ZM11.25 14.25H6V9.75H11.25V14.25ZM11.25 8.25H6C6 5.355 8.35575 3 11.25 3V8.25ZM14.25 21H12.75V15.75H14.25V21ZM17.25 21H15.75V15.75H17.25V21ZM18 14.25H12.75V9.75H18V14.25ZM12.75 8.25V3C15.6442 3 18 5.355 18 8.25H12.75ZM20.25 21H18.75V15.75H20.25V21Z"
          fill="#344054"/>
    <path d="M14.4699 12.5302C14.1767 12.2369 14.1767 11.7629 14.4699 11.4697L15.2199 10.7197C15.5132 10.4264 15.9872 10.4264 16.2804 10.7197C16.5737 11.0129 16.5737 11.4869 16.2804 11.7802L15.5304 12.5302C15.2372 12.8234 14.7632 12.8234 14.4699 12.5302Z"
          fill="#101828"/>
    <path d="M8.46994 6.53019C8.17669 6.23694 8.17669 5.76294 8.46994 5.46969L9.21994 4.71969C9.51319 4.42644 9.98719 4.42644 10.2804 4.71969C10.5737 5.01294 10.5737 5.48694 10.2804 5.78019L9.53044 6.53019C9.23719 6.82344 8.76319 6.82344 8.46994 6.53019Z"
          fill="#101828"/>
</svg>
