<svg width="24" height="24" viewBox="0 0 24 24" fill="none" xmlns="http://www.w3.org/2000/svg">
    <path d="M21.375 12.8459C20.9008 12.3084 20.2175 12.0001 19.5008 12.0001H3.66674V5.73514C3.66674 5.03431 3.98342 4.34099 4.57761 3.96849C5.48515 3.39933 6.59353 3.67933 7.16689 4.44432L7.38273 4.73182L6.98021 7.04096C6.93188 7.31929 6.98938 7.60596 7.14189 7.84346C7.49607 8.39512 8.24444 8.53012 8.76862 8.13679L11.7738 5.88347C12.2463 5.52931 12.3654 4.86932 12.0463 4.37182L12.0354 4.35432C11.8379 4.04599 11.5021 3.85266 11.1362 3.83599L8.71446 3.72849L8.56945 3.53516C8.02109 2.80433 7.24189 2.25017 6.34519 2.07267C4.03342 1.61518 2 3.38016 2 5.61098C2 5.61098 2.00333 10.3693 2.005 12.2134C2.005 12.6934 2.03583 13.1676 2.095 13.6442C2.17917 14.3184 2.29251 15.2276 2.29251 15.2276C2.50169 16.8984 3.31172 18.3667 4.48844 19.425L4.10759 20.9667C3.99675 21.4133 4.26926 21.865 4.71595 21.9758C4.78345 21.9925 4.85012 22 4.91679 22C5.29098 22 5.63099 21.7458 5.72516 21.3667L5.956 20.4325C6.88021 20.9025 7.92276 21.1667 9.01947 21.1667H15.2006C16.2198 21.1667 17.1923 20.9392 18.0674 20.5292L18.2749 21.3667C18.3682 21.7458 18.7091 22 19.0832 22C19.1499 22 19.2166 21.9917 19.2841 21.9758C19.7308 21.865 20.0033 21.4133 19.8924 20.9667L19.5508 19.5834C20.8258 18.515 21.71 16.9834 21.9292 15.2284L21.9809 14.8109C22.0692 14.0992 21.8492 13.3842 21.3742 12.8467L21.375 12.8459ZM20.3275 14.6034L20.2758 15.0209C19.9566 17.5742 17.7748 19.5 15.2014 19.5H9.0203C6.44686 19.5 4.26593 17.5742 3.94675 15.0209L3.77758 13.6667H19.5008C19.7433 13.6667 19.9658 13.7667 20.1258 13.9484C20.2858 14.1309 20.3575 14.3626 20.3275 14.6034Z"
          fill="#344054"/>
</svg>
