<svg width="24" height="24" viewBox="0 0 24 24" fill="none" xmlns="http://www.w3.org/2000/svg">
    <path d="M9.06959 11.8325C8.87422 11.8325 8.69004 11.9234 8.57119 12.0785C8.19709 12.5666 6.97656 14.233 6.97656 15.1814C6.97656 16.3354 7.91549 17.2744 9.06959 17.2744C10.2237 17.2744 11.1626 16.3354 11.1626 15.1814C11.1626 14.233 9.94208 12.5666 9.56798 12.0785C9.44913 11.9234 9.26495 11.8325 9.06959 11.8325ZM9.06959 16.0186C8.60795 16.0186 8.23238 15.643 8.23238 15.1814C8.23238 14.942 8.58861 14.2597 9.06959 13.5396C9.55056 14.2597 9.9068 14.9421 9.9068 15.1814C9.9068 15.643 9.53122 16.0186 9.06959 16.0186Z"
          fill="#344054"/>
    <path d="M18.6972 8.90233C19.7359 8.90233 20.5809 8.05729 20.5809 7.01861C20.5809 5.97992 19.7359 5.13489 18.6972 5.13489C17.6585 5.13489 16.8135 5.97992 16.8135 7.01861C16.8135 8.05729 17.6585 8.90233 18.6972 8.90233ZM18.6972 6.3907C19.0434 6.3907 19.3251 6.67238 19.3251 7.01861C19.3251 7.36484 19.0434 7.64652 18.6972 7.64652C18.351 7.64652 18.0693 7.36484 18.0693 7.01861C18.0693 6.67238 18.351 6.3907 18.6972 6.3907Z"
          fill="#344054"/>
    <path d="M20.2662 14.1616C20.4734 13.7517 20.5762 13.2943 20.5611 12.8275C20.5387 12.1297 20.2541 11.4733 19.76 10.9792C19.2393 10.4585 18.547 10.1718 17.8107 10.1718C17.0743 10.1718 16.382 10.4585 15.8613 10.9792C15.5814 11.2592 15.3688 11.5923 15.2328 11.961C15.2016 11.9633 15.1706 11.9666 15.1395 11.9699V9.5302C15.1395 7.86943 13.8432 6.50658 12.2093 6.39841V5.76276C12.2093 4.94418 11.6843 4.24624 10.9535 3.98704V2.53951H11.8317C13.3431 2.53951 14.7513 3.21635 15.6957 4.39685C15.8197 4.55182 16.002 4.63244 16.1862 4.63244C16.3237 4.63244 16.4623 4.5874 16.5781 4.49472C16.8489 4.2781 16.8927 3.88277 16.676 3.61197C15.4923 2.13229 13.7266 1.28369 11.8317 1.28369H5.30233C4.95555 1.28369 4.67442 1.56483 4.67442 1.9116C4.67442 2.25837 4.95555 2.53951 5.30233 2.53951H7.18605V3.98704C6.4552 4.24624 5.93023 4.94418 5.93023 5.76276V6.39841C4.29638 6.50658 3 7.86943 3 9.5302V20.4139C3 21.6834 4.03282 22.7162 5.30233 22.7162H12.8372C14.1067 22.7162 15.1395 21.6834 15.1395 20.4139V17.9108C15.6486 17.966 16.1715 17.89 16.6557 17.6785C16.6695 17.693 16.6834 17.7073 16.6976 17.7215C17.1736 18.1975 17.8065 18.4597 18.4797 18.4597C19.1529 18.4597 19.7858 18.1975 20.2618 17.7215C20.7378 17.2455 21 16.6125 21 15.9393C21 15.2682 20.7395 14.6372 20.2662 14.1616ZM8.44186 2.53951H9.69767V3.87904H8.44186V2.53951ZM7.18605 5.76276C7.18605 5.41653 7.46773 5.13485 7.81395 5.13485H10.3256C10.6718 5.13485 10.9535 5.41653 10.9535 5.76276V6.39067H7.18605V5.76276ZM6.13953 7.64648H12C12.9679 7.64648 13.7673 8.38038 13.8718 9.3209H4.2677C4.37223 8.38038 5.1716 7.64648 6.13953 7.64648ZM13.8837 20.4139C13.8837 20.991 13.4143 21.4604 12.8372 21.4604H5.30233C4.72528 21.4604 4.25581 20.991 4.25581 20.4139V19.786H13.8837V20.4139ZM13.8837 18.5302H4.25581V10.5767H13.8837V12.3981C13.6928 12.5165 13.5143 12.6571 13.3523 12.8191C12.1851 13.9862 12.1851 15.8853 13.3523 17.0524C13.5161 17.2163 13.6946 17.3574 13.8837 17.4757V18.5302ZM19.3738 16.8335C19.1349 17.0723 18.8174 17.2039 18.4797 17.2039C18.142 17.2039 17.8244 17.0723 17.5856 16.8335C17.5153 16.7632 17.451 16.6739 17.3831 16.5525C17.2961 16.3968 17.1469 16.2854 16.9729 16.2463C16.9272 16.236 16.881 16.231 16.835 16.231C16.7057 16.231 16.5782 16.271 16.471 16.3473C15.7777 16.8405 14.8395 16.7637 14.2403 16.1645C13.9121 15.8363 13.7313 15.3999 13.7313 14.9358C13.7313 14.4716 13.9121 14.0353 14.2403 13.7071C14.6059 13.3414 15.1191 13.1632 15.6489 13.2183C15.981 13.2526 16.2817 13.0216 16.3339 12.6921C16.3845 12.3736 16.5281 12.0883 16.7492 11.8672C17.3344 11.282 18.2868 11.282 18.872 11.8672C19.4186 12.4138 19.4501 13.3057 18.9435 13.8977C18.8221 14.0397 18.7701 14.2282 18.8018 14.4123C18.8335 14.5964 18.9454 14.7569 19.1073 14.8501C19.2221 14.9162 19.3068 14.9782 19.3738 15.0452C19.6127 15.284 19.7442 15.6016 19.7442 15.9393C19.7442 16.2771 19.6127 16.5946 19.3738 16.8335Z"
          fill="#344054"/>
</svg>
