<svg width="24" height="24" viewBox="0 0 24 24" fill="none" xmlns="http://www.w3.org/2000/svg">
    <path d="M12 11.2969C9.75872 11.2969 8.48438 13.8877 8.48438 16.2188C8.48438 18.5486 9.75858 21.1875 12 21.1875C14.2403 21.1875 15.5156 18.5504 15.5156 16.2188C15.5156 13.8789 14.2357 11.2969 12 11.2969ZM12 19.7812C10.8763 19.7812 9.89062 18.1165 9.89062 16.2188C9.89062 14.3131 10.8566 12.7031 12 12.7031C13.1434 12.7031 14.1094 14.3131 14.1094 16.2188C14.1094 18.1165 13.1237 19.7812 12 19.7812Z"
          fill="#344054"/>
    <path d="M5.67188 24H18.3281V16.2188C18.3281 15.0173 18.1032 13.8572 17.659 12.7647C18.3008 11.7493 18.4738 10.5813 18.1577 9.36173C17.7888 7.93828 16.7552 6.59972 15.5157 5.89542V2.8125H14.1094V1.40625H14.8125V0H9.1875V1.40625H9.89062V2.8125H8.48438V5.89528C7.24364 6.59963 6.20972 7.93664 5.84147 9.35747C5.52994 10.5594 5.7082 11.7535 6.34139 12.7637C5.89688 13.8565 5.67188 15.0168 5.67188 16.2188V24ZM11.2969 1.40625H12.7031V2.8125H11.2969V1.40625ZM9.89062 4.21875H14.1094V5.625H9.89062V4.21875ZM7.07812 16.2188C7.07812 14.1343 7.87209 12.8346 7.95745 12.5928C7.89281 12.4362 6.74738 11.4673 7.20272 9.71025C7.49213 8.59345 8.36128 7.51242 9.34256 7.03125H14.6574C15.6374 7.51209 16.5062 8.59481 16.7963 9.71452C17.2505 11.4668 16.1063 12.4382 16.0425 12.5928C16.1292 12.8383 16.9219 14.1429 16.9219 16.2188V22.5938H7.07812V16.2188Z"
          fill="#344054"/>
</svg>
