<svg width="24" height="24" viewBox="0 0 24 24" fill="none" xmlns="http://www.w3.org/2000/svg">
    <g clip-path="url(#clip0_516_6661)">
        <path d="M19 6H5C2.243 6 0 8.243 0 11V19C0 21.757 2.243 24 5 24H19C21.757 24 24 21.757 24 19V11C24 8.243 21.757 6 19 6ZM9 22H6V19.5C6 18.673 6.673 18 7.5 18C8.327 18 9 18.673 9 19.5V22ZM18 22H15V19.5C15 18.673 15.673 18 16.5 18C17.327 18 18 18.673 18 19.5V22ZM22 19C22 20.304 21.164 21.415 20 21.828V19.5C20 17.57 18.43 16 16.5 16C14.57 16 13 17.57 13 19.5V22H11V19.5C11 17.57 9.43 16 7.5 16C5.57 16 4 17.57 4 19.5V21.828C2.836 21.415 2 20.304 2 19V11C2 9.346 3.346 8 5 8H19C20.654 8 22 9.346 22 11V19ZM10 12.5C10 13.881 8.881 15 7.5 15C6.119 15 5 13.881 5 12.5C5 11.119 6.119 10 7.5 10C8.881 10 10 11.119 10 12.5ZM19 12.5C19 13.881 17.881 15 16.5 15C15.119 15 14 13.881 14 12.5C14 11.119 15.119 10 16.5 10C17.881 10 19 11.119 19 12.5ZM4.502 2.677L6.952 0.227C7.255 -0.075 7.745 -0.075 8.048 0.227L10.499 2.678C10.987 3.166 10.641 4.001 9.951 4.001H5.05C4.36 4.001 4.014 3.166 4.502 2.677ZM13.502 1.322C13.014 0.834 13.36 0 14.05 0H18.951C19.641 0 19.987 0.834 19.499 1.322L17.048 3.773C16.745 4.076 16.255 4.076 15.952 3.773L13.502 1.322Z"
              fill="#344054"/>
    </g>
    <defs>
        <clipPath id="clip0_516_6661">
            <rect width="24" height="24" fill="white"/>
        </clipPath>
    </defs>
</svg>
