<svg width="24" height="24" viewBox="0 0 24 24" fill="none" xmlns="http://www.w3.org/2000/svg">
    <path d="M12 10.2221C13.5396 11.111 12.6507 12.6506 14.1902 13.5395C14.3925 13.658 14.6162 13.7354 14.8485 13.7672C15.0808 13.799 15.3171 13.7845 15.5437 13.7245C15.7704 13.6646 15.983 13.5604 16.1692 13.418C16.3555 13.2756 16.5117 13.0978 16.6289 12.8947C16.7461 12.6917 16.8221 12.4675 16.8523 12.235C16.8825 12.0025 16.8664 11.7663 16.805 11.54C16.7436 11.3138 16.638 11.1019 16.4943 10.9166C16.3507 10.7313 16.1718 10.5762 15.968 10.4604C14.4284 9.57147 13.5396 11.111 12 10.2221Z"
          stroke="#344054" stroke-width="2" stroke-miterlimit="10"/>
    <path d="M12 18.2222C16.4183 18.2222 20 14.6404 20 10.2222C20 5.80389 16.4183 2.22217 12 2.22217C7.58172 2.22217 4 5.80389 4 10.2222C4 14.6404 7.58172 18.2222 12 18.2222Z" stroke="#344054"
          stroke-width="2" stroke-miterlimit="10"/>
    <path d="M12 18.2222V21.7777" stroke="#344054" stroke-width="2" stroke-miterlimit="10"/>
    <path d="M7.55566 21.7778H16.4446" stroke="#344054" stroke-width="2" stroke-miterlimit="10" stroke-linecap="square"/>
    <path d="M12.0004 10.2222C12.0004 8.44447 13.7782 8.44447 13.7782 6.66669C13.7782 6.1952 13.5909 5.74301 13.2575 5.40961C12.9241 5.07622 12.4719 4.88892 12.0004 4.88892C11.5289 4.88892 11.0768 5.07622 10.7434 5.40961C10.41 5.74301 10.2227 6.1952 10.2227 6.66669C10.2227 8.44447 12.0004 8.44447 12.0004 10.2222Z"
          stroke="#344054" stroke-width="2" stroke-miterlimit="10"/>
    <path d="M12 10.2221C10.4604 11.111 9.57156 9.57147 8.032 10.4604C7.62701 10.6978 7.33237 11.0858 7.21238 11.5396C7.09239 11.9935 7.15678 12.4764 7.39151 12.8829C7.62625 13.2895 8.01226 13.5867 8.46531 13.7097C8.91836 13.8327 9.40168 13.7715 9.80978 13.5395C11.3493 12.6506 10.4604 11.111 12 10.2221Z"
          stroke="#344054" stroke-width="2" stroke-miterlimit="10"/>
</svg>
