<svg width="24" height="24" viewBox="0 0 24 24" fill="none" xmlns="http://www.w3.org/2000/svg">
    <path d="M20.1816 6.54553H21.9998" stroke="#344054" stroke-width="2" stroke-miterlimit="10" stroke-linecap="square"/>
    <path d="M6.54545 6.09096C6.54545 4.83577 5.52792 3.81824 4.27273 3.81824C3.01753 3.81824 2 4.83577 2 6.09096V17.9091C2 19.1643 3.01753 20.1819 4.27273 20.1819C5.52792 20.1819 6.54545 19.1643 6.54545 17.9091V6.09096Z"
          stroke="#344054" stroke-width="2" stroke-miterlimit="10" stroke-linecap="square"/>
    <path d="M11.0914 6.09096C11.0914 4.83577 10.0738 3.81824 8.81863 3.81824C7.56343 3.81824 6.5459 4.83577 6.5459 6.09096V17.9091C6.5459 19.1643 7.56343 20.1819 8.81863 20.1819C10.0738 20.1819 11.0914 19.1643 11.0914 17.9091V6.09096Z"
          stroke="#344054" stroke-width="2" stroke-miterlimit="10" stroke-linecap="square"/>
    <path d="M15.6363 6.09096C15.6363 4.83577 14.6187 3.81824 13.3635 3.81824C12.1084 3.81824 11.0908 4.83577 11.0908 6.09096V17.9091C11.0908 19.1643 12.1084 20.1819 13.3635 20.1819C14.6187 20.1819 15.6363 19.1643 15.6363 17.9091V6.09096Z"
          stroke="#344054" stroke-width="2" stroke-miterlimit="10" stroke-linecap="square"/>
    <path d="M20.1822 6.09096C20.1822 4.83577 19.1646 3.81824 17.9094 3.81824C16.6543 3.81824 15.6367 4.83577 15.6367 6.09096V17.9091C15.6367 19.1643 16.6543 20.1819 17.9094 20.1819C19.1646 20.1819 20.1822 19.1643 20.1822 17.9091V6.09096Z"
          stroke="#344054" stroke-width="2" stroke-miterlimit="10" stroke-linecap="square"/>
</svg>
