<svg width="24" height="24" viewBox="0 0 24 24" fill="none" xmlns="http://www.w3.org/2000/svg">
    <path d="M12.0006 7.18176V16.6818C12.0006 17.2488 11.8889 17.8104 11.6719 18.3343C11.4549 18.8582 11.1368 19.3342 10.7359 19.7352C10.3349 20.1362 9.85884 20.4542 9.33494 20.6712C8.81103 20.8883 8.24951 20.9999 7.68244 20.9999C6.53719 20.9999 5.43884 20.545 4.62902 19.7352C3.81921 18.9254 3.36426 17.827 3.36426 16.6818V13.2272L5.95517 14.9545"
          stroke="#344054" stroke-width="2" stroke-miterlimit="10" stroke-linecap="square"/>
    <path d="M18.0464 14.9546L20.6373 13.2273V16.6818C20.6373 17.2489 20.5256 17.8104 20.3086 18.3343C20.0916 18.8582 19.7736 19.3343 19.3726 19.7353C18.9716 20.1362 18.4956 20.4543 17.9717 20.6713C17.4477 20.8883 16.8862 21 16.3192 21C15.1739 21 14.0756 20.5451 13.2657 19.7353C12.4559 18.9254 12.001 17.8271 12.001 16.6818"
          stroke="#344054" stroke-width="2" stroke-miterlimit="10" stroke-linecap="square"/>
    <path d="M12.0011 7.18182C13.432 7.18182 14.592 6.02183 14.592 4.59091C14.592 3.15999 13.432 2 12.0011 2C10.5701 2 9.41016 3.15999 9.41016 4.59091C9.41016 6.02183 10.5701 7.18182 12.0011 7.18182Z"
          stroke="#344054" stroke-width="2" stroke-miterlimit="10" stroke-linecap="square"/>
</svg>
