<svg width="24" height="24" viewBox="0 0 24 24" fill="none" xmlns="http://www.w3.org/2000/svg">
    <g clip-path="url(#clip0_516_6451)">
        <path d="M12 16V20" stroke="#344054" stroke-width="2" stroke-miterlimit="10" stroke-linecap="square"/>
        <path d="M21 23H3C1.895 23 1 22.105 1 21V7L12 2L23 7V21C23 22.105 22.105 23 21 23Z" stroke="#344054" stroke-width="2" stroke-miterlimit="10"/>
        <path d="M12 14H14C16.209 14 18 12.209 18 10V9H16C13.791 9 12 10.791 12 13V14Z" stroke="#344054" stroke-width="2" stroke-miterlimit="10" stroke-linecap="square"/>
        <path d="M12 16H10C7.239 16 5 13.761 5 11V10H6.999C9.761 10 12 12.238 12 15V16Z" stroke="#344054" stroke-width="2" stroke-miterlimit="10" stroke-linecap="square"/>
    </g>
    <defs>
        <clipPath id="clip0_516_6451">
            <rect width="24" height="24" fill="white"/>
        </clipPath>
    </defs>
</svg>
