<svg width="24" height="24" viewBox="0 0 24 24" fill="none" xmlns="http://www.w3.org/2000/svg">
    <g clip-path="url(#clip0_516_6679)">
        <path d="M7 14H17V18C17 18.6566 16.8707 19.3068 16.6194 19.9134C16.3681 20.52 15.9998 21.0712 15.5355 21.5355C15.0712 21.9998 14.52 22.3681 13.9134 22.6194C13.3068 22.8707 12.6566 23 12 23C10.6739 23 9.40215 22.4732 8.46447 21.5355C7.52678 20.5979 7 19.3261 7 18V14Z"
              stroke="#344054" stroke-width="2" stroke-miterlimit="10" stroke-linecap="square"/>
        <path d="M9 14V11" stroke="#344054" stroke-width="2" stroke-miterlimit="10" stroke-linecap="square"/>
        <path d="M15 14V11" stroke="#344054" stroke-width="2" stroke-miterlimit="10" stroke-linecap="square"/>
        <path d="M2.77753 17.9999C1.69787 16.3398 1.08642 14.4189 1.00772 12.4401C0.929008 10.4613 1.38596 8.49799 2.33034 6.75731C3.27472 5.01663 4.67151 3.56319 6.37327 2.55037C8.07504 1.53755 10.0187 1.00293 11.999 1.00293C13.9794 1.00293 15.923 1.53755 17.6248 2.55037C19.3265 3.56319 20.7233 5.01663 21.6677 6.75731C22.6121 8.49799 23.069 10.4613 22.9903 12.4401C22.9116 14.4189 22.3002 16.3398 21.2205 17.9999"
              stroke="#344054" stroke-width="2" stroke-miterlimit="10" stroke-linecap="square"/>
        <path d="M7 7.10003C7.64343 6.44334 8.40992 5.91983 9.25569 5.55939C10.1015 5.19896 11.01 5.00867 11.9293 4.99938C12.8486 4.99009 13.7608 5.162 14.6136 5.50527C15.4665 5.84855 16.2434 6.35647 16.9 7.00003"
              stroke="#344054" stroke-width="2" stroke-miterlimit="10" stroke-linecap="square"/>
    </g>
    <defs>
        <clipPath id="clip0_516_6679">
            <rect width="24" height="24" fill="white"/>
        </clipPath>
    </defs>
</svg>
