<svg width="24" height="24" viewBox="0 0 24 24" fill="none" xmlns="http://www.w3.org/2000/svg">
    <path d="M7.42251 6.04146C7.42251 5.28249 8.03828 4.66651 8.797 4.66651C9.55571 4.66651 10.1715 5.28249 10.1715 6.04146C10.1715 6.80043 9.55571 7.4164 8.797 7.4164C8.03828 7.4164 7.42251 6.80043 7.42251 6.04146ZM23 12.0481V17.7056C23 19.064 22.2596 20.3024 21.0702 20.9376C19.3026 21.878 16.2962 23 12.0041 23C7.12837 23 3.89467 20.6058 2.40106 19.1786C1.50856 18.327 0.998172 17.1272 1 15.886C1.00184 14.4781 1.28681 10.8015 3.83053 6.86551C3.78563 6.59693 3.75722 6.32286 3.75722 6.04146C3.75722 3.26132 6.01779 1 8.797 1C11.5762 1 13.8368 3.26132 13.8368 6.04146C13.8368 8.66485 11.8236 10.8235 9.26157 11.0591C9.22858 11.6531 9.16078 12.2113 9.0554 12.7365C9.96714 12.3561 11.1318 12.0289 12.4623 11.9995C13.0753 11.9995 13.7149 12.1132 14.1996 12.2764C14.601 11.7722 16.7369 9.24966 19.3347 9.24966C19.7718 9.24966 20.1915 9.27166 20.5827 9.31565C21.9609 9.47056 23 10.6448 23 12.0472V12.0481ZM5.58987 6.04146C5.58987 7.81055 7.02849 9.24966 8.797 9.24966C10.5655 9.24966 12.0041 7.81055 12.0041 6.04146C12.0041 4.27236 10.5655 2.83326 8.797 2.83326C7.02849 2.83326 5.58987 4.27236 5.58987 6.04146ZM21.1674 12.0481C21.1674 11.5797 20.8283 11.1883 20.3793 11.1379C20.0549 11.1012 19.704 11.0829 19.3347 11.0829C17.9556 11.0829 16.5243 12.3891 15.8444 13.1646C16.5005 13.6852 16.8588 14.1949 16.8881 14.2389C17.1704 14.6587 17.0586 15.2288 16.6389 15.5102C16.4822 15.6156 16.3044 15.6661 16.1285 15.6661C15.8353 15.6661 15.5466 15.5258 15.3698 15.2646C15.3194 15.1931 14.3032 13.8062 12.4834 13.8328C9.8636 13.8915 8.03553 15.4112 8.01629 15.4259C8.00346 15.436 7.76613 15.6331 7.3263 15.6331C6.92953 15.6331 6.40998 15.1812 6.51627 14.6321C6.55017 14.5267 6.60699 14.3094 6.6079 14.3076C7.11005 13.3314 7.37028 12.2314 7.43901 10.8913C6.32567 10.5788 5.36903 9.89405 4.70928 8.97833C3.04066 12.0591 2.83357 14.7769 2.83265 15.8888C2.83265 16.6413 3.12771 17.338 3.6665 17.8522C4.96219 19.0906 7.76888 21.1667 12.005 21.1667C15.9187 21.1667 18.6273 20.1621 20.2089 19.3197C20.8008 19.0044 21.1683 18.3857 21.1683 17.7056L21.1674 12.0481Z"
          fill="#344054"/>
</svg>
