<svg width="24" height="24" viewBox="0 0 24 24" fill="none" xmlns="http://www.w3.org/2000/svg">
    <path d="M5.63636 3.81815L2 2.90906V10.1818L5.63636 9.27269" stroke="#344054" stroke-width="2" stroke-miterlimit="10"/>
    <path d="M17.4549 8.36366C18.4591 8.36366 19.2731 7.54963 19.2731 6.54548C19.2731 5.54132 18.4591 4.72729 17.4549 4.72729C16.4507 4.72729 15.6367 5.54132 15.6367 6.54548C15.6367 7.54963 16.4507 8.36366 17.4549 8.36366Z"
          fill="#344054"/>
    <path d="M22.0004 6.54545C22.0004 5.94854 21.8828 5.35746 21.6544 4.80598C21.4259 4.2545 21.0911 3.75342 20.669 3.33133C20.2469 2.90925 19.7459 2.57443 19.1944 2.346C18.6429 2.11757 18.0518 2 17.4549 2C17.2185 2 16.7649 2.05182 16.7649 2.05182L5.63672 3.81818V9.27273L11.4849 10.2C11.8621 10.2598 12.2225 10.3981 12.5428 10.6061C12.8631 10.814 13.1362 11.0869 13.3444 11.407C13.5526 11.7272 13.6912 12.0875 13.7512 12.4647C13.8113 12.8418 13.7915 13.2274 13.6931 13.5964L12.0804 19.6445C11.9962 19.9167 11.9771 20.2048 12.0247 20.4856C12.0723 20.7665 12.1852 21.0322 12.3544 21.2614C12.5235 21.4906 12.7441 21.6769 12.9985 21.8052C13.2528 21.9334 13.5337 22.0002 13.8185 22C14.2191 21.9999 14.6085 21.8675 14.9261 21.6234C15.2437 21.3792 15.4718 21.0371 15.5749 20.65L18.1422 11.0218C19.2141 10.8599 20.1926 10.3194 20.9004 9.49826C21.6082 8.67709 21.9984 7.62955 22.0004 6.54545Z"
          stroke="#344054" stroke-width="2" stroke-miterlimit="10"/>
</svg>
