<svg width="24" height="24" viewBox="0 0 24 24" fill="none" xmlns="http://www.w3.org/2000/svg">
    <path d="M15.4088 10.2824C14.7278 9.60784 13.6563 9.54875 12.9065 10.1051C12.8662 9.13695 12.0605 8.36244 11.0751 8.36244H7.4087C6.39769 8.36244 5.57549 9.17786 5.57549 10.1805V13.8167C5.57549 14.8194 6.39769 15.6348 7.4087 15.6348H10.5114L12.7003 17.8066C13.0733 18.1765 13.5637 18.3611 14.055 18.3611C14.5463 18.3611 15.0358 18.1756 15.4098 17.8056L17.8479 15.3867C18.21 15.0276 18.4089 14.5512 18.4089 14.0431C18.4089 13.5349 18.2091 13.0586 17.8479 12.7004L15.4098 10.2805L15.4088 10.2824ZM7.4087 10.1814H11.0751V12.2504C11.0751 12.265 11.0751 12.2786 11.0751 12.2923V13.8176H7.40779L7.4087 10.1814ZM16.5509 14.1022L14.1128 16.5212C14.0807 16.553 14.0284 16.553 13.9964 16.5212L12.4647 15.0021C12.7415 14.684 12.9083 14.2704 12.9083 13.8176V12.6477L13.9964 11.5687C14.0293 11.5368 14.0816 11.5387 14.1128 11.5687L16.5509 13.9876V14.1022ZM22.2898 2.89723C21.7692 2.32726 21.0258 2 20.2494 2H3.75053C2.97875 2 2.23813 2.32453 1.71749 2.88996C1.1987 3.4563 0.940213 4.21808 1.01171 4.98077L2.22529 17.8766C2.4462 20.2274 4.40773 22 6.78908 22H17.1238C19.4887 22 21.4502 20.2401 21.6848 17.9075L22.9864 4.99986C23.0634 4.23444 22.8104 3.46902 22.2898 2.89814V2.89723ZM21.1624 4.81714L19.8608 17.7247C19.7206 19.1247 18.5427 20.1801 17.1247 20.1801H6.78908C5.36009 20.1801 4.18317 19.1165 4.05209 17.7066L2.8385 4.81078C2.81376 4.55261 2.89717 4.30535 3.07316 4.11354C3.24914 3.92173 3.49021 3.81628 3.75053 3.81628H20.2504C20.5125 3.81628 20.7545 3.92264 20.9305 4.11536C21.1056 4.30808 21.188 4.55807 21.1624 4.81714Z"
          fill="#344054"/>
</svg>
