<svg width="24" height="24" viewBox="0 0 24 24" fill="none" xmlns="http://www.w3.org/2000/svg">
    <g clip-path="url(#clip0_516_6360)">
        <path d="M21.2898 0.21875H21.2895L2.70996 0.21875L2.70968 0.21875C2.32035 0.219184 1.94709 0.374036 1.6718 0.649334C1.3965 0.924632 1.24164 1.29789 1.24121 1.68722V1.6875L1.24121 22.3125L1.24121 22.3128C1.24164 22.7021 1.3965 23.0754 1.6718 23.3507C1.94709 23.626 2.32035 23.7808 2.70968 23.7812H2.70996H21.2895H21.2898C21.6791 23.7808 22.0524 23.626 22.3277 23.3507C22.603 23.0754 22.7578 22.7021 22.7583 22.3128V22.3125V1.6875V1.68722C22.7578 1.29789 22.603 0.924632 22.3277 0.649335C22.0524 0.374037 21.6791 0.219184 21.2898 0.21875ZM2.71011 1.28125H21.2894C21.3971 1.28141 21.5004 1.32428 21.5766 1.40046C21.6528 1.47667 21.6957 1.58 21.6958 1.68779V18.6279H2.30371V1.68765C2.30387 1.57992 2.34674 1.47664 2.42292 1.40046C2.4991 1.32428 2.60238 1.28141 2.71011 1.28125ZM21.2892 22.7188H2.71025C2.60246 22.7186 2.49913 22.6758 2.42292 22.5995C2.34674 22.5234 2.30387 22.4201 2.30371 22.3124V19.6904H21.6958V22.3122C21.6957 22.42 21.6528 22.5233 21.5766 22.5995C21.5004 22.6758 21.397 22.7186 21.2892 22.7188Z"
              fill="#344054" stroke="#344054" stroke-width="0.5"/>
        <path d="M11.9997 14.25H12C12.8406 14.25 13.6623 14.0007 14.3612 13.5337C15.0601 13.0668 15.6048 12.403 15.9265 11.6264C16.2482 10.8498 16.3323 9.99529 16.1683 9.17087C16.0043 8.34645 15.5996 7.58917 15.0052 6.9948C14.4108 6.40042 13.6536 5.99565 12.8291 5.83166C12.0047 5.66768 11.1502 5.75184 10.3736 6.07351C9.59701 6.39519 8.93325 6.93992 8.46625 7.63883C7.99926 8.33774 7.75 9.15943 7.75 10L7.75 10.0003C7.75128 11.127 8.19943 12.2072 8.99613 13.0039C9.79283 13.8006 10.873 14.2487 11.9997 14.25ZM12.0002 6.66706C12.6593 6.6671 13.3036 6.86257 13.8517 7.22876C14.3998 7.59499 14.827 8.11553 15.0792 8.72454C15.3315 9.33356 15.3975 10.0037 15.2689 10.6502C15.1403 11.2968 14.8229 11.8906 14.3567 12.3567C13.8906 12.8229 13.2967 13.1403 12.6502 13.2689C12.0037 13.3975 11.3336 13.3315 10.7245 13.0792C10.1155 12.827 9.59499 12.3998 9.22876 11.8517C8.86256 11.3036 8.66709 10.6593 8.66706 10.0001C8.6681 9.11647 9.0196 8.26929 9.64445 7.64445C10.2693 7.01959 11.1165 6.66809 12.0002 6.66706Z"
              fill="#344054" stroke="#344054" stroke-width="0.5"/>
        <path d="M12.0003 17.1336C15.959 17.1336 19.1792 13.9133 19.1792 9.95456C19.1792 5.99584 15.959 2.77563 12.0003 2.77563C8.04155 2.77563 4.82129 5.99584 4.82129 9.95456C4.82129 13.9133 8.04154 17.1336 12.0003 17.1336ZM12.0003 3.83813C15.3727 3.83813 18.1167 6.58221 18.1167 9.95456C18.1167 13.3269 15.3727 16.0711 12.0003 16.0711C8.62782 16.0711 5.88379 13.327 5.88379 9.95456C5.88379 6.58212 8.62781 3.83813 12.0003 3.83813Z"
              fill="#344054" stroke="#344054" stroke-width="0.5"/>
        <path d="M8.70199 20.7554C8.59579 20.7554 8.49197 20.7869 8.40367 20.8459C8.31537 20.9049 8.24655 20.9887 8.20591 21.0869C8.16527 21.185 8.15464 21.2929 8.17536 21.3971C8.19608 21.5013 8.24723 21.5969 8.32233 21.672C8.39742 21.7471 8.4931 21.7983 8.59727 21.819C8.70143 21.8397 8.80939 21.829 8.90751 21.7884C9.00562 21.7477 9.08948 21.6789 9.14847 21.5906C9.20747 21.5023 9.23895 21.3985 9.23895 21.2923C9.23878 21.1499 9.18216 21.0134 9.08149 20.9128C8.98083 20.8121 8.84435 20.7555 8.70199 20.7554Z"
              fill="#344054"/>
        <path d="M10.9178 20.7554C10.8116 20.7554 10.7078 20.7869 10.6195 20.8459C10.5312 20.9049 10.4624 20.9887 10.4217 21.0869C10.3811 21.185 10.3705 21.2929 10.3912 21.3971C10.4119 21.5013 10.463 21.5969 10.5381 21.672C10.6132 21.7471 10.7089 21.7983 10.8131 21.819C10.9172 21.8397 11.0252 21.829 11.1233 21.7884C11.2214 21.7477 11.3053 21.6789 11.3643 21.5906C11.4233 21.5023 11.4548 21.3985 11.4548 21.2923C11.4546 21.1499 11.398 21.0134 11.2973 20.9128C11.1967 20.8121 11.0602 20.7555 10.9178 20.7554Z"
              fill="#344054"/>
        <path d="M13.1337 20.7554C13.0275 20.7554 12.9237 20.7868 12.8353 20.8458C12.747 20.9048 12.6782 20.9887 12.6376 21.0868C12.5969 21.1849 12.5863 21.2929 12.607 21.3971C12.6277 21.5012 12.6789 21.5969 12.7539 21.672C12.829 21.7471 12.9247 21.7982 13.0289 21.819C13.1331 21.8397 13.241 21.829 13.3391 21.7884C13.4373 21.7477 13.5211 21.6789 13.5801 21.5906C13.6391 21.5023 13.6706 21.3985 13.6706 21.2923C13.6704 21.1499 13.6138 21.0135 13.5131 20.9128C13.4125 20.8122 13.276 20.7555 13.1337 20.7554Z"
              fill="#344054"/>
        <path d="M15.3495 20.7554C15.2433 20.7554 15.1395 20.7868 15.0512 20.8458C14.9629 20.9048 14.894 20.9887 14.8534 21.0868C14.8127 21.1849 14.8021 21.2929 14.8228 21.3971C14.8435 21.5012 14.8947 21.5969 14.9698 21.672C15.0449 21.7471 15.1405 21.7982 15.2447 21.819C15.3489 21.8397 15.4568 21.829 15.555 21.7884C15.6531 21.7477 15.7369 21.6789 15.7959 21.5906C15.8549 21.5023 15.8864 21.3985 15.8864 21.2923C15.8862 21.1499 15.8296 21.0135 15.729 20.9128C15.6283 20.8122 15.4918 20.7555 15.3495 20.7554Z"
              fill="#344054"/>
    </g>
    <defs>
        <clipPath id="clip0_516_6360">
            <rect width="24" height="24" fill="white"/>
        </clipPath>
    </defs>
</svg>
