<svg width="24" height="24" viewBox="0 0 24 24" fill="none" xmlns="http://www.w3.org/2000/svg">
    <g clip-path="url(#clip0_516_6521)">
        <path d="M1 14H23V21C23 21.5304 22.7893 22.0391 22.4142 22.4142C22.0391 22.7893 21.5304 23 21 23H3C2.46957 23 1.96086 22.7893 1.58579 22.4142C1.21071 22.0391 1 21.5304 1 21V14Z"
              stroke="#344054" stroke-width="2" stroke-miterlimit="10" stroke-linecap="square"/>
        <path d="M5.5 6C6.88071 6 8 4.88071 8 3.5C8 2.11929 6.88071 1 5.5 1C4.11929 1 3 2.11929 3 3.5C3 4.88071 4.11929 6 5.5 6Z" stroke="#344054" stroke-width="2" stroke-miterlimit="10"
              stroke-linecap="square"/>
        <path d="M11.535 14.0001L7.267 9.73305C6.91738 9.38373 6.47205 9.14588 5.9873 9.04954C5.50255 8.9532 5.00012 9.00271 4.5435 9.1918C4.08687 9.3809 3.69654 9.70109 3.42181 10.1119C3.14709 10.5228 3.0003 11.0058 3 11.5001V14.0001"
              stroke="#344054" stroke-width="2" stroke-miterlimit="10"/>
        <path d="M1 18H23" stroke="#344054" stroke-width="2" stroke-miterlimit="10"/>
        <path d="M14.7088 8C14.9306 7.61094 15.0293 7.16385 14.992 6.71759C14.9547 6.27134 14.7831 5.84685 14.4998 5.5C14.2166 5.15315 14.045 4.72866 14.0077 4.28241C13.9704 3.83615 14.0691 3.38906 14.2908 3"
              stroke="#344054" stroke-width="2" stroke-miterlimit="10" stroke-linecap="square"/>
        <path d="M19.7088 9C19.9306 8.61094 20.0293 8.16385 19.992 7.71759C19.9547 7.27134 19.7831 6.84685 19.4998 6.5C19.2166 6.15315 19.045 5.72866 19.0077 5.28241C18.9704 4.83615 19.0691 4.38906 19.2908 4"
              stroke="#344054" stroke-width="2" stroke-miterlimit="10" stroke-linecap="square"/>
    </g>
    <defs>
        <clipPath id="clip0_516_6521">
            <rect width="24" height="24" fill="white"/>
        </clipPath>
    </defs>
</svg>
