<svg width="24" height="24" viewBox="0 0 24 24" fill="none" xmlns="http://www.w3.org/2000/svg">
    <path d="M13.92 1.56201L13.9104 6.18241L13.9008 10.8028L13.4598 9.73022V9.72747L12.8877 20.0134C13.4502 21.3775 13.7506 22.1063 13.7538 22.1091C13.757 22.1118 14.0766 22.1283 14.4633 22.1448C15.633 22.1943 17.084 22.3016 18.1866 22.4198C18.4423 22.4473 18.6596 22.4611 18.6756 22.4501C18.6916 22.4391 18.6948 17.7362 18.6916 11.9964L18.682 1.56201H13.92Z"
          fill="url(#paint0_linear_532_3805)"/>
    <path d="M5.30566 1.54816V11.9936C5.30566 17.7389 5.31206 22.4445 5.32164 22.4528C5.33123 22.461 5.74351 22.4253 6.24208 22.3785C6.74065 22.3318 7.42779 22.2713 7.76976 22.2465C8.2939 22.208 9.86631 22.1228 10.0453 22.12C10.0996 22.12 10.1028 21.8862 10.1092 17.6949L10.1188 13.2697L10.4991 14.1938C10.5566 14.3368 10.5758 14.3808 10.6333 14.5211L11.2054 4.2379C11.084 3.94362 11.1479 4.09764 11.0105 3.76211C10.5439 2.62626 10.1476 1.66642 10.1316 1.62242L10.0996 1.54541H5.30566V1.54816Z"
          fill="url(#paint1_linear_532_3805)"/>
    <path d="M5.30566 1.54816L10.1156 13.2779V13.2724L10.4959 14.1965C12.6085 19.3421 13.7431 22.1034 13.7495 22.1089C13.7527 22.1116 14.0723 22.1281 14.459 22.1446C15.6287 22.1941 17.0797 22.3014 18.1823 22.4197C18.4348 22.4472 18.6553 22.4609 18.6681 22.4499L13.8997 10.7999V10.8027L13.4586 9.73009C13.0272 8.68226 12.7395 7.98095 11.0041 3.7621C10.5375 2.62625 10.1412 1.66642 10.1252 1.62242L10.0933 1.54541H7.69946L5.30566 1.54816Z"
          fill="#E30A17"/>
    <defs>
        <linearGradient id="paint0_linear_532_3805" x1="20.8394" y1="17.1828" x2="13.2176" y2="20.53" gradientUnits="userSpaceOnUse">
            <stop stop-color="#B20610"/>
            <stop offset="0.255959" stop-color="#B20610"/>
            <stop offset="1" stop-color="#590004"/>
        </linearGradient>
        <linearGradient id="paint1_linear_532_3805" x1="2.9944" y1="6.12837" x2="11.2371" y2="2.55029" gradientUnits="userSpaceOnUse">
            <stop stop-color="#B20610"/>
            <stop offset="0.255959" stop-color="#B20610"/>
            <stop offset="1" stop-color="#590004"/>
        </linearGradient>
    </defs>
</svg>
