<svg width="24" height="24" viewBox="0 0 24 24" fill="none" xmlns="http://www.w3.org/2000/svg">
    <g clip-path="url(#clip0_532_5555)">
        <path fill-rule="evenodd" clip-rule="evenodd"
              d="M6 14.9C3.71776 14.4367 2 12.419 2 10C2 7.23858 4.23858 5 7 5C7.13763 5 7.2741 5.00558 7.40917 5.01655C8.17691 3.24195 9.94256 2 12 2C14.0574 2 15.8231 3.24195 16.5908 5.01656C16.7259 5.00559 16.8624 5 17 5C19.7614 5 22 7.23858 22 10C22 12.419 20.2822 14.4367 18 14.9V21C18 21.5523 17.5523 22 17 22H7C6.44772 22 6 21.5523 6 21V14.9ZM9.06781 6.36182C9.3599 5.01132 10.563 4 12 4C13.437 4 14.6401 5.01132 14.9322 6.36183C14.9906 6.63165 15.1579 6.86535 15.3945 7.00755C15.6311 7.14976 15.916 7.18782 16.1816 7.11272C16.4406 7.0395 16.7149 7 17 7C18.6569 7 20 8.34315 20 10C20 11.6569 18.6569 13 17 13C16.4477 13 16 13.4477 16 14V17H14.25V15C14.25 14.5858 13.9142 14.25 13.5 14.25C13.0858 14.25 12.75 14.5858 12.75 15V17H11.25V15C11.25 14.5858 10.9142 14.25 10.5 14.25C10.0858 14.25 9.75 14.5858 9.75 15V17H8V14C8 13.4477 7.55228 13 7 13C5.34315 13 4 11.6569 4 10C4 8.34315 5.34315 7 7 7C7.28513 7 7.55938 7.0395 7.81837 7.11271C8.08403 7.18781 8.3689 7.14975 8.60552 7.00755C8.84214 6.86534 9.00945 6.63165 9.06781 6.36182ZM16 19V20H8V19H16Z"
              fill="#344054"/>
    </g>
    <defs>
        <clipPath id="clip0_532_5555">
            <rect width="20" height="20" fill="white" transform="translate(2 2)"/>
        </clipPath>
    </defs>
</svg>
