<svg width="24" height="24" viewBox="0 0 24 24" fill="none" xmlns="http://www.w3.org/2000/svg">
    <path fill-rule="evenodd" clip-rule="evenodd"
          d="M5.38197 6L7.10557 2.55279C7.27496 2.214 7.62123 2 8 2H16C16.3788 2 16.725 2.214 16.8944 2.55279L18.618 6H20C20.5523 6 21 6.44772 21 7C21 7.55228 20.5523 8 20 8H4C3.44772 8 3 7.55228 3 7C3 6.44772 3.44772 6 4 6H5.38197ZM15.382 4L16.382 6H7.61803L8.61803 4H15.382Z"
          fill="#344054"/>
    <path d="M6.98387 9.82111C6.88507 9.27774 6.36449 8.91733 5.82111 9.01613C5.27774 9.11493 4.91733 9.63551 5.01613 10.1789L7.01613 21.1789C7.10258 21.6544 7.51671 22 8 22H16C16.4833 22 16.8974 21.6544 16.9839 21.1789L18.9839 10.1789C19.0827 9.63551 18.7223 9.11493 18.1789 9.01613C17.6355 8.91733 17.1149 9.27774 17.0161 9.82111L15.1654 20H8.83458L6.98387 9.82111Z"
          fill="#344054"/>
    <path fill-rule="evenodd" clip-rule="evenodd"
          d="M12 10C10.3431 10 9 11.3431 9 13C9 14.6569 10.3431 16 12 16C13.6569 16 15 14.6569 15 13C15 11.3431 13.6569 10 12 10ZM11 13C11 12.4477 11.4477 12 12 12C12.5523 12 13 12.4477 13 13C13 13.5523 12.5523 14 12 14C11.4477 14 11 13.5523 11 13Z"
          fill="#344054"/>
</svg>
