<svg width="24" height="24" viewBox="0 0 24 24" fill="none" xmlns="http://www.w3.org/2000/svg">
    <path d="M21.8955 17.369L20.4864 14.3333H20.7489C21.4388 14.3333 21.9988 13.8107 21.9988 13.1667C21.9988 12.5227 21.4388 12 20.7489 12H19.4032L17.2366 7.33333H18.2491C18.939 7.33333 19.499 6.81067 19.499 6.16667C19.499 5.52267 18.939 5 18.2491 5H5.74997C5.06002 5 4.50006 5.52267 4.50006 6.16667C4.50006 6.81067 5.06002 7.33333 5.74997 7.33333H6.7624L4.59589 12H3.25015C2.5602 12 2.00024 12.5227 2.00024 13.1667C2.00024 13.8107 2.5602 14.3333 3.25015 14.3333H3.51264L2.10357 17.369C1.82859 17.9609 2.12024 18.6477 2.75269 18.9036C2.91435 18.9697 3.08267 19 3.24932 19C3.73262 19 4.19259 18.7371 4.39674 18.2977L6.23744 14.3333H17.7624L19.6031 18.2977C19.8073 18.7371 20.2673 19 20.7506 19C20.9164 19 21.0847 18.9697 21.2472 18.9036C21.8805 18.6477 22.1713 17.9609 21.8963 17.369H21.8955ZM7.32069 12L9.4872 7.33333H14.5127L16.6792 12H7.32069Z"
          fill="#344054"/>
</svg>
