<svg width="24" height="24" viewBox="0 0 24 24" fill="none" xmlns="http://www.w3.org/2000/svg">
    <g clip-path="url(#clip0_516_6438)">
        <path d="M19.4535 9.54003C19.5026 9.15435 19.3834 8.76633 19.1262 8.47422L19.126 8.474C18.868 8.18181 18.4973 8.0146 18.1074 8.0146H15.5595L19.2054 9.50887M19.4535 9.54003C19.4535 9.5402 19.4535 9.54037 19.4534 9.54054L19.2054 9.50887M19.4535 9.54003C19.4535 9.53999 19.4535 9.53995 19.4535 9.53991L19.2054 9.50887M19.4535 9.54003C19.1564 11.9151 17.8089 13.9659 15.8913 15.2141M19.2054 9.50887C18.9091 11.8782 17.5329 13.9153 15.5844 15.1124M15.8913 15.2141L15.8177 15.0227L15.5844 15.1124M15.8913 15.2141L16.5936 17.0402M15.8913 15.2141C15.8331 15.2519 15.7744 15.289 15.7152 15.3254L15.5844 15.1124M15.5844 15.1124L16.5936 17.0402M16.5936 17.0402C16.5446 17.0305 16.4951 17.0222 16.4452 17.0154L16.4115 17.2631L16.6448 17.1734L16.5936 17.0402ZM16.5936 17.0402C17.742 17.2675 18.609 18.2787 18.609 19.4919C18.609 20.8722 17.4865 21.9921 16.1044 21.9921C15.1314 21.9921 14.2872 21.437 13.8728 20.6281M16.5936 17.0402L7.88774 20.3781M13.8728 20.6281H14.0313V20.3781L13.8016 20.4769C13.8237 20.5282 13.8475 20.5786 13.8728 20.6281ZM13.8728 20.6281H8.05976M8.05976 20.6281L8.12123 20.4674L7.88774 20.3781M8.05976 20.6281L7.75933 21.4133M8.05976 20.6281H7.88774V20.3781M7.88774 20.3781L7.75933 21.4133M7.75933 21.4133L7.52578 21.3241L7.75927 21.4135C7.62607 21.7621 7.29103 21.9921 6.91778 21.9921H6.91693H6.91608H6.91523H6.91437H6.91352H6.91267H6.91181H6.91096H6.9101H6.90924H6.90838H6.90752H6.90666H6.9058H6.90494H6.90407H6.90321H6.90234H6.90148H6.90061H6.89974H6.89887H6.898H6.89713H6.89626H6.89539H6.89452H6.89364H6.89277H6.89189H6.89101H6.89014H6.88926H6.88838H6.8875H6.88662H6.88573H6.88485H6.88397H6.88308H6.8822H6.88131H6.88042H6.87953H6.87864H6.87775H6.87686H6.87597H6.87508H6.87419H6.87329H6.8724H6.8715H6.87061H6.86971H6.86881H6.86791H6.86701H6.86611H6.86521H6.86431H6.8634H6.8625H6.86159H6.86069H6.85978H6.85888H6.85797H6.85706H6.85615H6.85524H6.85433H6.85342H6.8525H6.85159H6.85068H6.84976H6.84884H6.84793H6.84701H6.84609H6.84517H6.84425H6.84333H6.84241H6.84149H6.84057H6.83964H6.83872H6.8378H6.83687H6.83594H6.83502H6.83409H6.83316H6.83223H6.8313H6.83037H6.82944H6.82851H6.82757H6.82664H6.82571H6.82477H6.82383H6.8229H6.82196H6.82102H6.82008H6.81915H6.81821H6.81726H6.81632H6.81538H6.81444H6.8135H6.81255H6.81161H6.81066H6.80972H6.80877H6.80782H6.80687H6.80592H6.80497H6.80402H6.80307H6.80212H6.80117H6.80022H6.79926H6.79831H6.79736H6.7964H6.79544H6.79449H6.79353H6.79257H6.79161H6.79066H6.7897H6.78874H6.78777H6.78681H6.78585H6.78489H6.78392H6.78296H6.782H6.78103H6.78007H6.7791H6.77813H6.77716H6.7762H6.77523H6.77426H6.77329H6.77232H6.77135H6.77038H6.7694H6.76843H6.76746H6.76648H6.76551H6.76453H6.76356H6.76258H6.7616H6.76063H6.75965H6.75867H6.75769H6.75671H6.75573H6.75475H6.75377H6.75279H6.75181H6.75082H6.74984H6.74886H6.74787H6.74689H6.7459H6.74492H6.74393H6.74294H6.74196H6.74097H6.73998H6.73899H6.738H6.73701H6.73602H6.73503H6.73404H6.73305H6.73206H6.73106H6.73007H6.72908H6.72808H6.72709H6.72609H6.7251H6.7241H6.7231H6.72211H6.72111H6.72011H6.71911H6.71812H6.71712H6.71612H6.71512H6.71412H6.71311H6.71211H6.71111H6.71011H6.70911H6.7081H6.7071H6.7061H6.70509H6.70409H6.70308H6.70208H6.70107H6.70006H6.69906H6.69805H6.69704H6.69603H6.69502H6.69402H6.69301H6.692H6.69099H6.68998H6.68896H6.68795H6.68694H6.68593H6.68492H6.6839H6.68289H6.68188H6.68086H6.67985H6.67884H6.67782H6.67681H6.67579H6.67477H6.67376H6.67274H6.67172H6.67071H6.66969H6.66867H6.66765H6.66663H6.66562H6.6646H6.66358H6.66256H6.66154H6.66052H6.65949H6.65847H6.65745H6.65643H6.65541H6.65439H6.65336H6.65234H6.65132H6.65029H6.64927H6.64824H6.64722H6.6462H6.64517H6.64415H6.64312H6.64209H6.64107H6.64004H6.63901H6.63799H6.63696H6.63593H6.63491H6.63388H6.63285H6.63182H6.63079H6.62976H6.62873H6.6277H6.62667H6.62564H6.62461H6.62358H6.62255H6.62152H6.62049H6.61946H6.61843H6.6174H6.61637H6.61533H6.6143H6.61327H6.61224H6.6112H6.61017H6.60914H6.6081H6.60707H6.60603H6.605H6.60397H6.60293H6.6019H6.60086H6.59983H6.59879H6.59776H6.59672H6.59569H6.59465H6.59361H6.59258H6.59154H6.5905H6.58947H6.58843H6.58739H6.58636H6.58532H6.58428H6.58324H6.58221H6.58117H6.58013H6.57909H6.57805H6.57702H6.57598H6.57494H6.5739H6.57286H6.57182H6.57078H6.56975H6.56871H6.56767H6.56663H6.56559H6.56455H6.56351H6.56247H6.56143H6.56039H6.55935H6.55831H6.55727H6.55623H6.55519H6.55415H6.55311H6.55207H6.55102H6.54998H6.54894H6.5479H6.54686H6.54582H6.54478H6.54374H6.5427H6.54166H6.54062H6.53957H6.53853H6.53749H6.53645H6.53541H6.53437H6.53333H6.53228H6.53124H6.5302H6.52916H6.52812H6.52708H6.52604H6.52499H6.52395H6.52291H6.52187H6.52083H6.51979H6.51874H6.5177H6.51666H6.51562H6.51458H6.51354H6.5125H6.51145H6.51041H6.50937H6.50833H6.50729H6.50625H6.50521H6.50417H6.50312H6.50208H6.50104H6.5H6.49896H6.49792H6.49688H6.49584H6.4948H6.49376H6.49272H6.49168H6.49064H6.4896H6.48855H6.48751H6.48647H6.48543H6.48439H6.48336H6.48232H6.48128H6.48024H6.4792H6.47816H6.47712H6.47608H6.47504H6.474H6.47296H6.47192H6.47088H6.46985H6.46881H6.46777H6.46673H6.46569H6.46466H6.46362H6.46258H6.46154H6.46051H6.45947H6.45843H6.45739H6.45636H6.45532H6.45428H6.45325H6.45221H6.45118H6.45014H6.44911H6.44807H6.44703H6.446H6.44496H6.44393H6.4429H6.44186H6.44083H6.43979H6.43876H6.43773H6.43669H6.43566H6.43463H6.43359H6.43256H6.43153H6.4305H6.42946H6.42843H6.4274H6.42637H6.42534H6.42431H6.42328H6.42225H6.42122H6.42019H6.41916H6.41813H6.4171H6.41607H6.41504H6.41401H6.41298H6.41195H6.41093C6.11508 21.9921 5.83723 21.847 5.66887 21.6031C5.50056 21.3593 5.46327 21.0486 5.56885 20.7719L5.56888 20.7718L7.59803 15.458C5.79626 14.4301 4.43377 12.7205 3.86585 10.6806C3.85619 10.6545 3.84812 10.6265 3.8426 10.5962C3.75123 10.2531 3.68196 9.90037 3.63681 9.53995C3.58774 9.15435 3.70687 8.76624 3.96432 8.47453C4.22176 8.18282 4.59252 8.01562 4.98188 8.01561C4.98189 8.01561 4.98191 8.01561 4.98192 8.01561L7.55724 8.01516C7.52904 7.8445 7.51918 7.65041 7.54323 7.43717L7.54326 7.43684C7.60196 6.92247 7.85656 6.30721 8.53094 5.66277L8.53094 5.66277C8.88228 5.32705 9.11722 4.86483 9.26509 4.47199C9.33818 4.27781 9.38812 4.10568 9.41966 3.98262C9.4354 3.9212 9.44648 3.87229 9.45353 3.83931C9.45705 3.82282 9.45956 3.81034 9.46113 3.8023L9.46279 3.79362L9.4631 3.79192L9.46311 3.79188L9.46312 3.79182L9.46313 3.79174L9.46315 3.79167L9.46319 3.79141C9.49275 3.62778 9.5974 3.48574 9.74769 3.40995C9.89667 3.33406 10.0725 3.33249 10.2225 3.40452L10.2229 3.40468L10.1144 3.6299C10.2229 3.40468 10.223 3.40473 10.2231 3.40478L10.2233 3.40489L10.2239 3.40515L10.2253 3.40587L10.2298 3.40807L10.2444 3.41549C10.2566 3.42178 10.2736 3.43078 10.2948 3.4425C10.3371 3.46593 10.3962 3.50036 10.4664 3.54597C10.6064 3.63691 10.7933 3.7738 10.9809 3.95845C11.2302 4.20372 11.4874 4.54028 11.6322 4.96966C11.6839 4.811 11.7015 4.64364 11.6676 4.4696C11.4842 3.53067 11.6292 2.90974 11.8828 2.49964L11.8829 2.49952C12.0979 2.15241 12.3829 1.96502 12.6138 1.86551C12.7288 1.81596 12.8309 1.78792 12.9058 1.7721C12.9433 1.76417 12.9743 1.75924 12.997 1.75622C13.0084 1.7547 13.0177 1.75366 13.0248 1.75296L13.0337 1.75216L13.0338 1.75214L13.037 1.75188L13.0383 1.75179L13.0388 1.75175L13.0391 1.75173C13.0392 1.75173 13.0393 1.75172 13.0563 2.00114C13.1346 1.99404 13.2123 2.02042 13.2708 2.07216L7.75933 21.4133ZM4.69866 9.38976L4.70082 9.40719C4.72402 9.59489 4.755 9.78027 4.79319 9.96292H18.2969C18.3343 9.7853 18.3647 9.605 18.3881 9.42257V9.42103L18.3901 9.40535C18.4004 9.32412 18.3754 9.24278 18.3216 9.1818C18.2674 9.12047 18.1893 9.08525 18.1074 9.08525C15.4745 9.08525 7.61528 9.08525 4.98202 9.08627H4.98192C4.90027 9.08627 4.82258 9.12128 4.76826 9.18276L4.69866 9.38976ZM4.69866 9.38976C4.69324 9.31424 4.71832 9.23939 4.76821 9.18282L4.69866 9.38976ZM12.6324 2.85891C12.6422 2.89846 12.6532 2.93965 12.6653 2.98229C12.6653 2.98232 12.6654 2.98236 12.6654 2.98239C12.6843 3.04885 12.7063 3.11883 12.7317 3.19163C12.7507 3.14193 12.7722 3.0993 12.7949 3.06279L12.795 3.06263C12.8302 3.00574 12.8701 2.96215 12.91 2.92846C12.8823 2.83322 12.8613 2.74553 12.8453 2.66766C12.7749 2.71086 12.6997 2.77205 12.6324 2.85891ZM11.3556 6.91928C11.3559 6.91908 11.3562 6.91888 11.3566 6.91868L11.219 6.7099C11.3555 6.91934 11.3556 6.91931 11.3556 6.91928ZM12.7196 4.26471L12.4742 4.31266L12.7196 4.26475C12.7196 4.26474 12.7196 4.26472 12.7196 4.26471ZM12.3446 5.9257C12.3447 5.92563 12.3447 5.92556 12.3447 5.92549L12.1361 5.78772L12.3446 5.9257ZM10.5605 6.28379L10.7946 6.37156L10.5605 6.28372C10.5605 6.28375 10.5605 6.28377 10.5605 6.28379ZM10.0901 4.59129C10.1555 4.64513 10.2235 4.7077 10.2888 4.77896C10.3234 4.68441 10.3532 4.59527 10.3789 4.51367C10.3076 4.44518 10.2366 4.38634 10.1713 4.337C10.1486 4.41401 10.1217 4.49955 10.0901 4.59129ZM9.27189 6.43615L9.09918 6.2554L9.27185 6.43619C9.27186 6.43618 9.27188 6.43616 9.27189 6.43615ZM8.71847 8.1403C8.70335 8.11405 8.68159 8.07158 8.66096 8.01509L8.50183 8.0151L8.50185 8.2651L8.71847 8.1403ZM14.5483 8.0146L14.3993 8.01461C14.3705 8.07193 14.3469 8.11393 14.3326 8.13823L14.5483 8.2646L14.5483 8.0146ZM8.56631 15.9267C8.6079 15.9435 8.64965 15.9599 8.69158 15.976L6.79984 20.9214H6.65891L8.56631 15.9267ZM16.1044 18.063C16.8957 18.063 17.5371 18.7038 17.5371 19.4919C17.5371 20.2802 16.8956 20.9214 16.1044 20.9214C15.3132 20.9214 14.6712 20.2801 14.6712 19.4919C14.6712 18.7039 15.3131 18.063 16.1044 18.063ZM8.46928 19.5575L8.51926 19.427H13.6002C13.5996 19.4485 13.5993 19.4702 13.5993 19.4919C13.5993 19.5139 13.5996 19.5357 13.6002 19.5575H8.46928ZM11.5449 16.5017C12.3358 16.5017 13.1 16.3865 13.8223 16.1715L14.3963 17.6642C14.184 17.8617 14.0061 18.0958 13.8727 18.3563H8.92872L9.71872 16.2916C10.3052 16.4288 10.9167 16.5017 11.5449 16.5017ZM14.8265 15.7972C14.8665 15.779 14.9064 15.7606 14.9461 15.7419L15.4592 17.0759C15.4166 17.0873 15.3744 17.0997 15.3327 17.1132L14.8265 15.7972ZM17.9787 11.0336C16.9791 13.6055 14.4734 15.431 11.5449 15.431C8.61587 15.431 6.11018 13.6055 5.11107 11.0336H17.9787Z"
              fill="#344054" stroke="#344054" stroke-width="0.5"/>
    </g>
    <defs>
        <clipPath id="clip0_516_6438">
            <rect width="20" height="20" fill="white" transform="translate(2 2)"/>
        </clipPath>
    </defs>
</svg>
