<svg width="24" height="24" viewBox="0 0 24 24" fill="none" xmlns="http://www.w3.org/2000/svg">
    <g clip-path="url(#clip0_516_6633)">
        <path d="M8 19C7.447 19 7 18.552 7 18V9C7 6.794 8.794 5 11 5H13.5C15.981 5 18 7.019 18 9.5C18 11.981 15.981 14 13.5 14H9V18C9 18.552 8.553 19 8 19ZM9 12H13.5C14.879 12 16 10.878 16 9.5C16 8.122 14.879 7 13.5 7H11C9.897 7 9 7.897 9 9V12ZM12 24C5.383 24 0 18.617 0 12C0 5.383 5.383 0 12 0C18.617 0 24 5.383 24 12C24 18.617 18.617 24 12 24ZM12 2C6.486 2 2 6.486 2 12C2 17.514 6.486 22 12 22C17.514 22 22 17.514 22 12C22 6.486 17.514 2 12 2Z"
              fill="#344054"/>
    </g>
    <defs>
        <clipPath id="clip0_516_6633">
            <rect width="24" height="24" fill="white"/>
        </clipPath>
    </defs>
</svg>
