<svg width="24" height="24" viewBox="0 0 24 24" fill="none" xmlns="http://www.w3.org/2000/svg">
    <path d="M19.2716 15.4038L19.2728 15.4038L19.2901 15.4038C21.4773 15.4038 23.2502 17.167 23.2502 19.3596C23.2502 21.543 21.4735 23.3197 19.2901 23.3197H4.7049C2.61008 23.3197 0.874263 21.7209 0.758208 19.6681C0.681809 18.386 0.966439 17.1354 1.61999 15.8639L1.62016 15.8635C2.33987 14.4683 3.31826 13.3063 4.24583 12.2105L19.2716 15.4038ZM19.2716 15.4038L18.5798 15.4072M19.2716 15.4038L18.5798 15.4072M18.5798 15.4072C18.2788 14.4134 17.3545 13.6872 16.2632 13.6872H12.6742C11.565 13.6872 10.6264 14.4388 10.3436 15.4569L8.83691 15.4657C11.5984 11.7389 12.6702 8.37887 12.024 5.2471C11.7142 3.74508 11.0469 2.57224 10.0528 1.78945C9.05873 1.00665 7.76265 0.633446 6.2316 0.684704L6.23146 0.684709C5.56206 0.707478 4.77928 0.875294 4.07459 1.38806C3.37327 1.89838 2.77313 2.73308 2.43099 4.04519C1.82732 5.05244 1.5109 6.22827 1.487 7.32719C1.46293 8.43373 1.7356 9.49204 2.34718 10.2193L2.34749 10.2197C3.0444 11.0453 4.43317 10.6692 4.56397 9.56917C4.62297 9.07482 4.763 8.72331 4.97828 8.47283C5.1898 8.22672 5.49517 8.0535 5.93459 7.95325C5.94755 7.95144 5.95842 7.94908 5.96654 7.9471C5.98344 7.94297 5.99835 7.93798 6.00993 7.93373C6.03272 7.92534 6.05426 7.91543 6.07032 7.90772C6.08459 7.90087 6.09909 7.89353 6.11023 7.88789C6.1119 7.88705 6.1135 7.88624 6.11501 7.88547C6.12878 7.87852 6.13515 7.87542 6.13827 7.87404L6.13837 7.87427L6.14853 7.86919C6.16614 7.86039 6.17972 7.85089 6.18185 7.84942C6.18705 7.84586 6.19179 7.84239 6.19528 7.8398C6.20237 7.83455 6.21046 7.82833 6.21813 7.82239C6.22408 7.81778 6.23019 7.81303 6.23664 7.80801C6.24857 7.79873 6.26171 7.78851 6.27734 7.77649C6.32415 7.7405 6.38313 7.69634 6.44426 7.65526C6.47013 7.63787 6.49493 7.62204 6.51815 7.60812C6.66911 8.35742 6.47371 9.07212 6.04989 9.82191C5.61894 10.5843 4.96807 11.3556 4.24586 12.2105L18.5798 15.4072ZM2.17841 19.5874L2.17838 19.5868C2.11653 18.5561 2.33326 17.5845 2.88594 16.5168L2.88631 16.5161C3.51787 15.2864 4.41657 14.2185 5.30666 13.1607L5.33245 13.1301C5.33255 13.13 5.33265 13.1299 5.33275 13.1297C6.09181 12.2331 6.85072 11.3361 7.35939 10.3934C7.87225 9.44283 8.14128 8.42739 7.9029 7.29569L7.90272 7.29484C7.7541 6.60126 7.36108 6.30239 7.02694 6.19293L7.02688 6.19291C6.80729 6.12104 6.57592 6.11787 6.34598 6.16738C6.01137 4.99137 5.14785 4.07841 4.02717 3.74769C4.23761 3.24395 4.5123 2.86467 4.84303 2.59918C5.22565 2.29202 5.70015 2.12347 6.27801 2.10548L6.27926 2.10544C7.49168 2.06161 8.45377 2.34366 9.17035 2.90911C9.88707 3.47468 10.3863 4.34595 10.6305 5.53388L10.6306 5.53409C11.2392 8.48121 10.0327 11.8074 6.82471 15.7335L6.82427 15.734C6.64964 15.9489 6.61933 16.2403 6.72956 16.4867L6.72944 16.4868L6.73296 16.494C6.85156 16.7378 7.09746 16.8984 7.3772 16.8984L7.38153 16.8984L7.38322 16.8984L10.3857 16.878C10.7082 17.8358 11.6139 18.5286 12.6786 18.5286H16.2676C17.3514 18.5286 18.2663 17.8095 18.5772 16.8293C18.7113 16.8285 18.9334 16.8271 19.2952 16.8249C20.7005 16.8253 21.8335 17.9628 21.8335 19.3595C21.8292 20.7612 20.6911 21.8986 19.2901 21.8986H4.7049C3.35228 21.8986 2.2526 20.8759 2.17841 19.5874ZM12.6699 15.1082H16.2589C16.8084 15.1082 17.2586 15.5584 17.2586 16.1079C17.2586 16.6573 16.8084 17.1075 16.2589 17.1075H12.6699C12.1207 17.1075 11.6707 16.6578 11.6702 16.1087C11.6741 15.5575 12.1259 15.1082 12.6699 15.1082ZM3.22039 8.98173C2.99858 8.55855 2.88766 7.99455 2.90304 7.36358C2.9213 6.61422 3.1177 5.80086 3.48382 5.08041C4.24376 5.2429 4.85109 5.88545 5.02636 6.75144C4.52017 6.95552 4.10657 7.26341 3.79481 7.67521C3.51837 8.04035 3.32852 8.47849 3.22039 8.98173Z"
          fill="#344054" stroke="#344054" stroke-width="0.5"/>
    <path d="M7.20405 2.62964C6.50786 2.62964 5.94141 3.1961 5.94141 3.89228C5.94141 4.58846 6.50786 5.15492 7.20405 5.15492C7.90023 5.15492 8.46669 4.58846 8.46669 3.89228C8.46669 3.19177 7.90023 2.62964 7.20405 2.62964ZM7.20405 4.22956C7.01379 4.22956 6.86244 4.07822 6.86244 3.89228C6.86244 3.70634 7.01379 3.555 7.20405 3.555C7.38998 3.555 7.54133 3.70634 7.54133 3.89228C7.54133 4.07389 7.38998 4.22956 7.20405 4.22956Z"
          fill="#101828"/>
</svg>
