<svg width="24" height="24" viewBox="0 0 24 24" fill="none" xmlns="http://www.w3.org/2000/svg">
    <g clip-path="url(#clip0_516_6446)">
        <path d="M19.673 10.045C18.861 7.693 16.625 6 14 6C11.392 6 9.169 7.672 8.343 10H5C2.243 10 0 12.243 0 15V17C0 19.046 1.236 20.809 3 21.582V23C3 23.553 3.448 24 4 24C4.552 24 5 23.553 5 23V22H19V23C19 23.553 19.447 24 20 24C20.553 24 21 23.553 21 23V21.582C22.764 20.809 24 19.046 24 17V15C24 12.471 22.113 10.375 19.673 10.045ZM14 8C16.206 8 18 9.794 18 12C18 14.206 16.206 16 14 16C11.794 16 10 14.206 10 12C10 9.794 11.794 8 14 8ZM22 17C22 18.654 20.654 20 19 20H5C3.346 20 2 18.654 2 17V15C2 13.346 3.346 12 5 12H8C8 15.309 10.691 18 14 18C17.251 18 19.906 15.401 19.997 12.171C21.162 12.583 22 13.695 22 15V17ZM7 15.5C7 16.328 6.328 17 5.5 17C4.672 17 4 16.328 4 15.5C4 14.672 4.672 14 5.5 14C6.328 14 7 14.672 7 15.5ZM13 3V1C13 0.447 13.447 0 14 0C14.553 0 15 0.447 15 1V3C15 3.553 14.553 4 14 4C13.447 4 13 3.553 13 3ZM17.668 3.445L18.668 1.945C18.974 1.486 19.593 1.361 20.055 1.668C20.515 1.975 20.639 2.595 20.332 3.055L19.332 4.555C19.14 4.844 18.822 5 18.499 5C18.309 5 18.116 4.945 17.945 4.832C17.485 4.525 17.361 3.905 17.668 3.445ZM7.668 3.054C7.362 2.594 7.486 1.974 7.945 1.667C8.403 1.36 9.026 1.485 9.332 1.944L10.332 3.444C10.638 3.904 10.514 4.524 10.055 4.831C9.885 4.944 9.692 4.999 9.501 4.999C9.178 4.999 8.861 4.843 8.668 4.554L7.668 3.054Z"
              fill="#344054"/>
    </g>
    <defs>
        <clipPath id="clip0_516_6446">
            <rect width="24" height="24" fill="white"/>
        </clipPath>
    </defs>
</svg>
