<svg width="24" height="24" viewBox="0 0 24 24" fill="none" xmlns="http://www.w3.org/2000/svg">
    <path d="M16.5 8.30033V7.41667C16.4977 6.84993 16.3235 6.29776 16.0013 5.83569C15.6791 5.37363 15.2246 5.02424 14.7 4.83533V2.83333H18.3C18.5387 2.83333 18.7676 2.73676 18.9364 2.56485C19.1052 2.39294 19.2 2.15978 19.2 1.91667C19.2 1.67355 19.1052 1.44039 18.9364 1.26849C18.7676 1.09658 18.5387 1 18.3 1H12C11.2839 1 10.5972 1.28973 10.0908 1.80546C9.58446 2.32118 9.3 3.02065 9.3 3.75V4.83533C8.77538 5.02424 8.32088 5.37363 7.99868 5.83569C7.67648 6.29776 7.50231 6.84993 7.5 7.41667V8.30033C6.14849 8.97653 5.01031 10.0253 4.21483 11.3275C3.41935 12.6297 2.99846 14.133 3 15.6667V17.5C3.00143 18.9582 3.57082 20.3563 4.58321 21.3875C5.59559 22.4186 6.96827 22.9985 8.4 23H15.6C17.0317 22.9985 18.4044 22.4186 19.4168 21.3875C20.4292 20.3563 20.9986 18.9582 21 17.5V15.6667C21.0015 14.133 20.5807 12.6297 19.7852 11.3275C18.9897 10.0253 17.8515 8.97653 16.5 8.30033ZM11.1 3.75C11.1 3.50688 11.1948 3.27373 11.3636 3.10182C11.5324 2.92991 11.7613 2.83333 12 2.83333H12.9V4.66667H11.1V3.75ZM9.3 7.41667C9.3 7.17355 9.39482 6.94039 9.56361 6.76849C9.73239 6.59658 9.96131 6.5 10.2 6.5H13.8C14.0387 6.5 14.2676 6.59658 14.4364 6.76849C14.6052 6.94039 14.7 7.17355 14.7 7.41667V8.33333H9.3V7.41667ZM19.2 17.5C19.2 18.4725 18.8207 19.4051 18.1456 20.0927C17.4704 20.7804 16.5548 21.1667 15.6 21.1667H8.4C7.44522 21.1667 6.52955 20.7804 5.85442 20.0927C5.17929 19.4051 4.8 18.4725 4.8 17.5V15.6667C4.79713 14.5588 5.07722 13.4693 5.61276 12.505C6.1483 11.5407 6.92087 10.7349 7.8546 10.1667H16.1454C17.0791 10.7349 17.8517 11.5407 18.3872 12.505C18.9228 13.4693 19.2029 14.5588 19.2 15.6667V17.5ZM14.7 13.8333H9.3C8.58392 13.8333 7.89716 14.1231 7.39081 14.6388C6.88447 15.1545 6.6 15.854 6.6 16.5833C6.6 17.3127 6.88447 18.0122 7.39081 18.5279C7.89716 19.0436 8.58392 19.3333 9.3 19.3333H14.7C15.4161 19.3333 16.1028 19.0436 16.6092 18.5279C17.1155 18.0122 17.4 17.3127 17.4 16.5833C17.4 15.854 17.1155 15.1545 16.6092 14.6388C16.1028 14.1231 15.4161 13.8333 14.7 13.8333ZM14.7 17.5H9.3C9.06131 17.5 8.83239 17.4034 8.66361 17.2315C8.49482 17.0596 8.4 16.8264 8.4 16.5833C8.4 16.3402 8.49482 16.1071 8.66361 15.9352C8.83239 15.7632 9.06131 15.6667 9.3 15.6667H14.7C14.9387 15.6667 15.1676 15.7632 15.3364 15.9352C15.5052 16.1071 15.6 16.3402 15.6 16.5833C15.6 16.8264 15.5052 17.0596 15.3364 17.2315C15.1676 17.4034 14.9387 17.5 14.7 17.5Z"
          fill="#344054"/>
</svg>
