<svg width="24" height="24" viewBox="0 0 24 24" fill="none" xmlns="http://www.w3.org/2000/svg">
    <g clip-path="url(#clip0_516_6494)">
        <path d="M5.66604 3.05713C4.13295 3.05713 2.88574 4.30438 2.88574 5.83743C2.88574 7.37047 4.13299 8.61772 5.66604 8.61772C7.19909 8.61772 8.44634 7.37052 8.44634 5.83743C8.44634 4.30433 7.19913 3.05713 5.66604 3.05713ZM5.66604 7.21147C4.90835 7.21147 4.29199 6.59511 4.29199 5.83743C4.29199 5.07974 4.9084 4.46338 5.66604 4.46338C6.42368 4.46338 7.04009 5.07978 7.04009 5.83743C7.04009 6.59507 6.42373 7.21147 5.66604 7.21147Z"
              fill="#344054"/>
        <path d="M17.3486 21.7015L14.8594 14.6812H10.0358L7.82709 9.43872H4.2225L1.47384 16.9146C1.36275 17.2168 1.33964 17.5393 1.3995 17.8468H0V19.2531H11.9028L14.247 23.1632C14.5668 23.6964 15.1374 23.9998 15.7272 23.9998C15.9604 23.9998 16.1967 23.9524 16.4215 23.853C17.2407 23.4907 17.6479 22.5457 17.3486 21.7015ZM4.94742 17.8468L5.78475 16.5044L6.49519 17.8468H4.94742ZM15.8528 22.5669C15.7069 22.6314 15.535 22.5768 15.4531 22.4401L12.6993 17.8468H8.08617L5.88469 13.687L3.38761 17.6904C3.32648 17.7884 3.22111 17.8468 3.10566 17.8468C2.95486 17.8468 2.8702 17.7578 2.83317 17.7047C2.79614 17.6516 2.74177 17.5414 2.79375 17.3999L5.20378 10.845H6.89363L9.10238 16.0875H13.866L16.0232 22.1715C16.0782 22.3266 16.0033 22.5003 15.8528 22.5669Z"
              fill="#344054"/>
        <path d="M16.8617 5.28114C16.8617 4.38995 16.5012 3.9009 16.238 3.54381C16.0202 3.24821 15.8887 3.06976 15.8887 2.64076C15.8887 2.21171 16.0202 2.03331 16.2381 1.73762C16.5012 1.38053 16.8617 0.891479 16.8617 0.000244141H15.4554C15.4554 0.429244 15.3239 0.607697 15.106 0.903338C14.8429 1.26043 14.4824 1.74948 14.4824 2.64071C14.4824 3.5319 14.8428 4.02095 15.106 4.37804C15.3239 4.67364 15.4554 4.85209 15.4554 5.28109C15.4554 5.71023 15.3239 5.88868 15.106 6.18437C14.8428 6.5416 14.4824 7.0307 14.4824 7.92198C14.4824 8.81326 14.8428 9.30235 15.106 9.65945C15.3239 9.95514 15.4554 10.1336 15.4554 10.5627H16.8617C16.8617 9.67145 16.5013 9.18235 16.2381 8.82521C16.0202 8.52953 15.8887 8.35107 15.8887 7.92193C15.8887 7.49279 16.0202 7.31438 16.2381 7.01865C16.5012 6.66151 16.8617 6.17242 16.8617 5.28114Z"
              fill="#344054"/>
        <path d="M20.431 5.28099C20.431 4.38981 20.0706 3.90076 19.8074 3.54367C19.5895 3.24807 19.458 3.06962 19.458 2.64062C19.458 2.21157 19.5895 2.03317 19.8074 1.73748C20.0705 1.38053 20.431 0.891479 20.431 0.000244141H19.0247C19.0247 0.429244 18.8932 0.607697 18.6754 0.903338C18.4122 1.26043 18.0518 1.74948 18.0518 2.64071C18.0518 3.5319 18.4122 4.02095 18.6754 4.37804C18.8932 4.67364 19.0247 4.85209 19.0247 5.28109C19.0247 5.71023 18.8932 5.88868 18.6753 6.18437C18.4122 6.54151 18.0518 7.0306 18.0518 7.92184C18.0518 8.81307 18.4121 9.30221 18.6753 9.65931C18.8932 9.95499 19.0247 10.1335 19.0247 10.5626H20.431C20.431 9.67131 20.0706 9.18221 19.8074 8.82507C19.5895 8.52938 19.458 8.35093 19.458 7.92179C19.458 7.49265 19.5895 7.31424 19.8074 7.01851C20.0706 6.66137 20.431 6.17228 20.431 5.28099Z"
              fill="#344054"/>
        <path d="M24.0003 5.28114C24.0003 4.38995 23.6399 3.9009 23.3767 3.54381C23.1589 3.24821 23.0273 3.06976 23.0273 2.64076C23.0273 2.21171 23.1589 2.03331 23.3767 1.73762C23.6399 1.38053 24.0003 0.891479 24.0003 0.000244141H22.5941C22.5941 0.429244 22.4625 0.607697 22.2447 0.903338C21.9816 1.26043 21.6211 1.74948 21.6211 2.64071C21.6211 3.5319 21.9815 4.02095 22.2447 4.37804C22.4625 4.67364 22.5941 4.85209 22.5941 5.28109C22.5941 5.71023 22.4625 5.88868 22.2447 6.18437C21.9815 6.54151 21.6211 7.0306 21.6211 7.92184C21.6211 8.81307 21.9815 9.30221 22.2447 9.65931C22.4625 9.95499 22.5941 10.1335 22.5941 10.5626H24.0003C24.0003 9.67131 23.64 9.18221 23.3767 8.82507C23.1589 8.52938 23.0273 8.35093 23.0273 7.92179C23.0273 7.49265 23.1589 7.31424 23.3767 7.01851C23.64 6.66151 24.0003 6.17242 24.0003 5.28114Z"
              fill="#344054"/>
    </g>
    <defs>
        <clipPath id="clip0_516_6494">
            <rect width="24" height="24" fill="white"/>
        </clipPath>
    </defs>
</svg>
