<svg width="24" height="24" viewBox="0 0 24 24" fill="none" xmlns="http://www.w3.org/2000/svg">
    <path d="M23 3.8054V3.42882C23 2.85572 22.6581 2.34021 22.1283 2.11353C21.6076 1.89325 21.0081 1.99836 20.5983 2.38682C20.2573 2.71222 19.8082 2.89228 19.3333 2.89228H7.13525C4.48425 2.89137 2.14033 4.47995 1.16592 6.94051C0.878083 7.66625 0.971583 8.48797 1.41617 9.13967C1.86992 9.80599 2.62158 10.2036 3.42733 10.2036H3.75V17.5158C2.23383 17.5158 1 18.7461 1 20.2579C1 21.7697 2.23383 23 3.75 23H22.0833C22.5903 23 23 22.5914 23 22.086C23 21.5805 22.5903 21.1719 22.0833 21.1719H3.75C3.244 21.1719 2.83333 20.7625 2.83333 20.2579C2.83333 19.7534 3.244 19.3439 3.75 19.3439H22.0833C22.5903 19.3439 23 18.9353 23 18.4299C23 17.9244 22.5903 17.5158 22.0833 17.5158H20.25V9.05283C21.911 7.89567 23 5.97439 23 3.8054ZM2.93142 8.11139C2.87092 8.02181 2.78108 7.83718 2.87 7.61141C3.56667 5.85465 5.24142 4.71942 7.13525 4.71942H19.3333C19.9778 4.71942 20.5993 4.55307 21.1465 4.24322C20.9247 6.55845 18.9639 8.37554 16.5852 8.37554H3.42733C3.14225 8.37554 2.98642 8.19091 2.93142 8.11139ZM11.0833 10.2036V17.5158H9.25V10.2036H11.0833ZM12.9167 10.2036H14.75V17.5158H12.9167V10.2036ZM5.58333 10.2036H7.41667V17.5158H5.58333V10.2036ZM18.4167 17.5158H16.5833V10.2036H16.5852C17.2213 10.2036 17.8364 10.1104 18.4167 9.93761V17.5158Z"
          fill="#344054"/>
</svg>
